# xmcd CD database file
# Copyright (C) 1993-1998 Ti Kan
#
# Track frame offsets:
#	187
#	18000
#	35662
#	49215
#	66837
#	81700
#	94987
#	112187
#	124437
#	142800
#	155512
#	170925
#
# Disc length: 2484 seconds
#
# Revision: 1
# Processed by: cddbd v1.4b41PL1 Copyright (c) Steve Scherf et al.
# Submitted via: CDValet v3.31 - Copyright (c) 1997 Greg Leichner
#
DISCID=b209b20c
DTITLE=Eddie Hinton - Cry And Moan
DYEAR=1900
DGENRE=
TTITLE0=Come On Home Baby Lee
TTITLE1=Cry And Moan
TTITLE2=I Found A True Love
TTITLE3=( I Got To ) Testify
TTITLE4=Cook With Me Mama
TTITLE5=Got To Have You
TTITLE6=Good Times
TTITLE7=Last Train To Loveland
TTITLE8=The Well Of Love
TTITLE9=Bottom Of The Well
TTITLE10=Make It Easy On Me
TTITLE11=I Remember Justice
EXTD=
EXTT0=
EXTT1=
EXTT2=
EXTT3=
EXTT4=
EXTT5=
EXTT6=
EXTT7=
EXTT8=
EXTT9=
EXTT10=
EXTT11=
PLAYORDER=
